<?xml version="1.0" encoding="UTF-8" standalone="no"?>
<!DOCTYPE svg PUBLIC "-//W3C//DTD SVG 1.1//EN" "http://www.w3.org/Graphics/SVG/1.1/DTD/svg11.dtd">
<!-- Created with Vectornator (http://vectornator.io/) -->
<svg height="100%" stroke-miterlimit="10" style="fill-rule:nonzero;clip-rule:evenodd;stroke-linecap:round;stroke-linejoin:round;" version="1.1" viewBox="0 0 2080 2080" width="100%" xml:space="preserve" xmlns="http://www.w3.org/2000/svg" xmlns:vectornator="http://vectornator.io" xmlns:xlink="http://www.w3.org/1999/xlink">
<defs/>
<g id="Layer-2" vectornator:layerName="Layer 2">
<path d="M960.324 1110.89C960.324 1110.89 899.3 909.923 899.38 846.023C899.46 782.123 960.048 605.727 972.977 587.888C972.592 588.351 1026.49 604.192 1064.11 586.565C1064.17 586.083 1140.69 741.019 1138.64 841.066C1137.36 903.133 1091.77 1101.13 1086.88 1108.57C1081.99 1116.01 1074.17 1125.82 1027.39 1128.39C980.621 1130.95 961.301 1111.79 960.324 1110.89Z" fill="#010431" fill-rule="nonzero" opacity="1" stroke="#010431" stroke-linecap="butt" stroke-linejoin="round" stroke-width="1" vectornator:layerName="Curve 1"/>
<path d="M1057.23 570.307C1058.04 572.019 1018.6 589.52 979.532 571.985C980.759 571.083 1003.69 512.491 1015.2 501.983C1026.71 491.475 1049.44 553.841 1057.23 570.307Z" fill="#010431" fill-rule="nonzero" opacity="1" stroke="#141b23" stroke-linecap="butt" stroke-linejoin="round" stroke-width="1" vectornator:layerName="Curve 2"/>
<path d="M1049.46 1135.51C1049.46 1135.51 1029.67 1140.58 1004.12 1136.05C1003.92 1136.09 1002.48 1149.84 1004.73 1159.23C1004.52 1158.79 1050.64 1158.57 1050.22 1158.55C1049.79 1158.52 1052.95 1149.97 1049.46 1135.51Z" fill="#010431" fill-rule="nonzero" opacity="1" stroke="#141b23" stroke-linecap="butt" stroke-linejoin="round" stroke-width="1" vectornator:layerName="Curve 3"/>
<g opacity="1" vectornator:layerName="Group 2">
<path d="M1122.37 1025.24L1142.46 926.674L1171.71 902.575L1171.23 1001.92" fill="#010431" fill-rule="nonzero" opacity="1" stroke="#010431" stroke-linecap="butt" stroke-linejoin="round" stroke-width="1" vectornator:layerName="Curve 4"/>
</g>
<path d="M1185.56 1051.3L1185.62 878.352C1185.62 878.352 1212.14 891.185 1237.98 877.938C1237.81 878.047 1233.19 1024.6 1233.19 1024.6C1233.19 1024.6 1193.26 1059.96 1185.56 1051.3Z" fill="#010431" fill-rule="nonzero" opacity="1" stroke="#010431" stroke-linecap="butt" stroke-linejoin="round" stroke-width="1" vectornator:layerName="Curve 5"/>
<path d="M1188.96 863.09L1211.98 837.161L1235.99 863.561C1235.99 863.561 1215.45 878.604 1188.96 863.09Z" fill="#010431" fill-rule="nonzero" opacity="1" stroke="#141b23" stroke-linecap="butt" stroke-linejoin="round" stroke-width="1" vectornator:layerName="Curve 6"/>
<g opacity="1" vectornator:layerName="Group 3">
<path d="M918.778 1025.24L897.337 926.674L866.13 902.575L866.642 1001.92" fill="#010431" fill-rule="nonzero" opacity="1" stroke="#010431" stroke-linecap="butt" stroke-linejoin="round" stroke-width="1" vectornator:layerName="Curve 4"/>
</g>
<path d="M851.36 1051.3L851.296 878.352C851.296 878.352 823.002 891.185 795.432 877.938C795.611 878.047 800.546 1024.6 800.546 1024.6C800.546 1024.6 843.147 1059.96 851.36 1051.3Z" fill="#010431" fill-rule="nonzero" opacity="1" stroke="#010431" stroke-linecap="butt" stroke-linejoin="round" stroke-width="1" vectornator:layerName="Curve 7"/>
<path d="M847.732 863.09L823.171 837.161L797.556 863.561C797.556 863.561 819.471 878.604 847.732 863.09Z" fill="#010431" fill-rule="nonzero" opacity="1" stroke="#010431" stroke-linecap="butt" stroke-linejoin="round" stroke-width="1" vectornator:layerName="Curve 8"/>
<path d="M1058.86 1156.98L1060.65 1134.81C1060.65 1134.81 1074.29 1134.21 1082.68 1128.82C1082.68 1128.82 1081.63 1143.65 1079.23 1149.34C1076.68 1155.04 1059.01 1157.13 1058.86 1156.98Z" fill="#010431" fill-rule="nonzero" opacity="1" stroke="#141b23" stroke-linecap="butt" stroke-linejoin="round" stroke-width="1" vectornator:layerName="Curve 9"/>
<path d="M991.907 1156.98L990.039 1134.81C990.039 1134.81 975.874 1134.21 967.157 1128.82C967.157 1128.82 968.247 1143.65 970.737 1149.34C973.383 1155.04 991.751 1157.13 991.907 1156.98Z" fill="#010431" fill-rule="nonzero" opacity="1" stroke="#141b23" stroke-linecap="butt" stroke-linejoin="round" stroke-width="1" vectornator:layerName="Curve 10"/>
<path d="M922.249 1050.44L957.236 1148.57C957.236 1148.57 876.914 1210.13 860.576 1267.45C860.576 1267.45 816.11 1157.9 823.465 1117.88C823.385 1117.26 874.918 1074.43 922.249 1050.44Z" fill="#010431" fill-rule="nonzero" opacity="1" stroke="#141b23" stroke-linecap="butt" stroke-linejoin="round" stroke-width="1" vectornator:layerName="Curve 11"/>
<path d="M1121.86 1049.68L1091.07 1150.53C1091.07 1150.53 1170.66 1210.77 1188.24 1268.59C1188.24 1268.59 1231.99 1147.23 1223.63 1106.74C1223.69 1106.1 1168.39 1072.69 1121.86 1049.68Z" fill="#010431" fill-rule="nonzero" opacity="1" stroke="#010431" stroke-linecap="butt" stroke-linejoin="round" stroke-width="1" vectornator:layerName="Curve 12"/>
<path d="M1052.45 1569.02L1082.71 1206.68C1082.71 1206.68 1138.44 1213.59 1128.36 1291.68C1118.27 1369.78 1052.45 1569.02 1052.45 1569.02Z" fill="#010431" fill-rule="nonzero" opacity="1" stroke="#010431" stroke-linecap="butt" stroke-linejoin="round" stroke-width="1" vectornator:layerName="Curve 14"/>
<path d="M991.907 1569.02L961.217 1206.68C961.217 1206.68 904.708 1213.59 914.933 1291.68C925.159 1369.78 991.907 1569.02 991.907 1569.02Z" fill="#010431" fill-rule="nonzero" opacity="1" stroke="#010431" stroke-linecap="butt" stroke-linejoin="round" stroke-width="1" vectornator:layerName="Curve 15"/>
<path d="M715.888 1967.08L715.888 1734.31L764.615 1734.29L764.748 1968.21L715.888 1967.08Z" fill="#0e0131" fill-rule="nonzero" opacity="1" stroke="#141b23" stroke-linecap="butt" stroke-linejoin="round" stroke-width="1" vectornator:layerName="Curve 16"/>
<path d="M802.5 1967.08L802.5 1734.31L851.227 1734.29L851.36 1968.21L802.5 1967.08Z" fill="#0e0131" fill-rule="nonzero" opacity="1" stroke="#141b23" stroke-linecap="butt" stroke-linejoin="round" stroke-width="1" vectornator:layerName="Curve 17"/>
<path d="M1047.03 1800.58L1095.3 1800.58C1095.3 1800.58 1097.47 1747.34 1037.71 1734.13C1037.84 1734 984.19 1734.64 946.922 1734.64C909.653 1734.64 886.509 1778 886.12 1803.08C885.731 1828.16 900.909 1872.09 948.592 1874.94C996.276 1877.78 1008.56 1875.57 1029.74 1876.14C1050.92 1876.71 1052.59 1916.8 1028.45 1918.39L946.751 1918.12C946.751 1918.12 934.485 1914.47 934.916 1900.4C935.057 1900.33 885.56 1900.16 885.56 1900.16C885.56 1900.16 882.923 1953.2 940.57 1966.86C940.721 1966.88 1036.36 1967.46 1036.36 1967.46C1036.36 1967.46 1093.9 1960.51 1094.6 1895.81C1095.31 1831.11 1030.49 1827.18 1032.34 1826.97C1034.2 1826.75 951.347 1826.26 951.347 1826.26C939.266 1826.07 922.383 1796.02 950.887 1784.1C951.004 1783.99 1030.44 1783.51 1034.8 1783.34C1039.16 1783.18 1048.41 1790.88 1047.03 1800.58Z" fill="#0e0131" fill-rule="nonzero" opacity="1" stroke="#141b23" stroke-linecap="butt" stroke-linejoin="round" stroke-width="1" vectornator:layerName="Curve 18"/>
<path d="M1226.62 1732.19C1161.9 1732.19 1109.44 1785.01 1109.44 1850.19C1109.44 1915.37 1161.9 1968.22 1226.62 1968.22C1283.58 1968.22 1331.05 1927.27 1341.62 1873.03L1293 1873.03C1283.89 1901.19 1257.63 1921.56 1226.62 1921.56C1188.06 1921.56 1156.81 1890.09 1156.81 1851.25C1156.81 1812.41 1188.06 1780.94 1226.62 1780.94C1258.13 1780.94 1284.77 1801.95 1293.47 1830.81L1342.12 1830.81C1332.92 1774.88 1284.78 1732.19 1226.62 1732.19Z" fill="#0e0131" fill-rule="nonzero" opacity="1" stroke="#141b23" stroke-linecap="butt" stroke-linejoin="round" stroke-width="1"/>
<path d="M1030.57 1183.98L1018.22 1184.07L1018.22 1184.14C971.447 1185 973.504 1228.85 973.504 1228.85L1024.69 1687.7L1024.69 1686.39L1024.72 1687.35L1070.75 1228.85C1070.75 1228.85 1072.62 1185.04 1030.57 1184.14L1030.57 1183.98Z" fill="#010431" fill-rule="nonzero" opacity="1" stroke="#010431" stroke-linecap="butt" stroke-linejoin="round" stroke-width="1"/>
<path d="M1594.2 1061.78C1594.2 1061.78 1593.97 1073.33 1592.26 1091.63C1593.91 1083.06 1594.73 1073.29 1594.2 1061.78ZM1592.26 1091.63C1582.35 1143.18 1539.4 1145.61 1539.86 1144.91C1491.01 1139.61 1481 1176.6 1481.23 1176.91C1369.56 1137.62 1382.48 1242.03 1383.01 1241.91C1163.23 1159.32 1170.17 1394.19 1170.17 1394.19C1159.16 1352.55 1125.07 1354.03 1125.07 1354.03L1052.45 1620.78C1514.62 1568.07 1582.29 1198.66 1592.26 1091.63ZM1518.45 1215.91C1525.8 1215.88 1533.42 1219.01 1538.56 1222.31C1543.86 1225.72 1545.96 1228.77 1549.41 1234.24C1552.75 1239.54 1553.53 1246.17 1552.76 1246.5C1548.13 1248.51 1546.11 1235.71 1529.55 1227.36C1511.5 1218.26 1487.33 1231.47 1475.48 1250.78C1469.09 1261.21 1468.17 1270.55 1468.37 1282.07C1468.6 1295.98 1469.78 1298.7 1467.45 1300.18C1464.88 1301.82 1463.59 1296.73 1459.52 1288.32C1454.56 1278.09 1439.09 1270.64 1438.81 1270.49C1396.87 1247.16 1351.6 1283.18 1364.79 1337.28C1364.82 1337.29 1364.83 1337.29 1364.86 1337.28C1388.29 1336.79 1395.84 1338.37 1410.26 1344.22C1445.96 1358.7 1458.25 1403.47 1453.27 1404.3C1448.29 1405.13 1448.13 1375.14 1405.51 1361.88C1387.75 1356.35 1367.7 1354.04 1355.57 1355.82C1328.03 1359.85 1307.27 1365.1 1278.36 1392.1C1263.38 1406.07 1246.52 1423.23 1242.14 1466.38C1242.11 1466.67 1242.11 1466.68 1242.11 1466.97C1241.91 1474.05 1240.33 1523.49 1238.41 1518.82C1217.72 1468.29 1227.1 1439.76 1231.98 1427.47C1215.42 1408.15 1158.98 1386.08 1139.82 1467.25C1138.66 1472.17 1125.53 1422.49 1171.01 1400.25C1203.71 1384.26 1227.7 1401.82 1239.86 1411.22C1246.65 1399.5 1255.36 1388.53 1265.92 1378.72C1288.31 1357.93 1317.16 1343.68 1346.36 1338.75C1336.35 1290.82 1369.16 1248.1 1409.36 1249.05C1425.05 1249.42 1444.41 1257.1 1458.64 1268.57C1459.78 1262.53 1461.54 1256.77 1464.07 1251.66C1474.71 1230.21 1496.4 1216.01 1518.45 1215.91Z" fill="#010431" fill-rule="nonzero" opacity="1" stroke="#010431" stroke-linecap="butt" stroke-linejoin="round" stroke-width="0.262196" vectornator:layerName="Curve 21"/>
<path d="M581.841 1430.22" fill="#d44646" fill-rule="nonzero" opacity="1" stroke="#d44646" stroke-linecap="butt" stroke-linejoin="round" stroke-width="0.1" vectornator:layerName="Curve 23"/>
<path d="M430.24 1055.7C429.687 1067.33 430.537 1077.22 432.24 1085.88C430.477 1067.38 430.24 1055.7 430.24 1055.7Z" fill="#010431" fill-rule="nonzero" opacity="0.50969" stroke="#010431" stroke-linecap="butt" stroke-linejoin="round" stroke-width="0.262196"/>
<path d="M432.25 1085.88C437.946 1145.64 461.983 1286.29 562.781 1409.25C568.951 1416.78 575.428 1424.22 582.188 1431.59C593.479 1443.91 606.923 1456.34 621.25 1468.47C637.319 1460.38 653.423 1452.13 669.281 1443.75C675.151 1440.64 680.952 1437.62 686.719 1434.53C704.627 1424.93 720.593 1416.08 736.812 1407.06C741.881 1404.25 746.443 1401.68 751.281 1398.97C754.954 1396.91 757.404 1395.48 760.875 1393.53C759.529 1392.25 758.172 1390.84 756.844 1389.62C726.947 1362.34 705.485 1357.01 677 1352.94C673.864 1352.49 670.214 1352.29 666.219 1352.34C661.51 1352.41 656.278 1352.9 650.875 1353.62C642.53 1354.74 633.707 1356.52 625.344 1359.06C619.357 1360.88 614.239 1363.02 609.75 1365.34C595.914 1372.51 588.765 1381.38 584.406 1388.66C579.77 1396.4 578.264 1402.31 575.969 1401.94C575.028 1401.78 574.929 1399.79 575.219 1397.12C576.513 1385.23 590.266 1353.19 620.438 1341.22C635.348 1335.31 643.176 1333.69 667.406 1334.19C667.431 1334.19 667.443 1334.19 667.469 1334.19C681.114 1279.49 634.306 1243.1 590.938 1266.69C590.65 1266.84 574.625 1274.34 569.5 1284.69C565.286 1293.19 563.974 1298.37 561.312 1296.72C558.902 1295.22 560.101 1292.44 560.344 1278.38C560.545 1266.73 559.617 1257.32 553 1246.78C540.751 1227.26 515.758 1213.89 497.094 1223.09C479.975 1231.53 477.886 1244.47 473.094 1242.44C472.296 1242.1 473.109 1235.39 476.562 1230.03C480.127 1224.5 482.301 1221.42 487.781 1217.97C493.092 1214.63 500.964 1211.46 508.562 1211.5C531.358 1211.6 553.813 1225.98 564.812 1247.66C567.432 1252.82 569.253 1258.65 570.438 1264.75C585.149 1253.16 605.15 1245.37 621.375 1245C662.94 1244.05 696.878 1287.23 686.531 1335.69C716.715 1340.67 746.565 1355.07 769.719 1376.09C772.523 1378.64 775.202 1381.28 777.75 1383.97C784.971 1379.88 793.415 1375.18 799.781 1371.5C827.081 1355.74 846.781 1344.06 846.781 1344.06C850.676 1341.54 851.998 1340.81 851.094 1341.59C848.751 1343.63 828.267 1357.88 801.094 1376.22C795.277 1380.15 788.175 1384.81 782.094 1388.88C787.605 1395.25 792.51 1401.94 796.656 1408.94C809.229 1399.44 834.037 1381.68 867.844 1397.84C869.577 1398.67 876.228 1401.67 882.125 1406.56C911.835 1431.16 901.151 1469.97 900.094 1465.59C893.248 1437.24 881.761 1421.54 869 1413.69C861.251 1407.14 850.265 1406.45 845.594 1406.62C828.997 1407.26 813.616 1416.35 806.125 1424.91C807.244 1427.66 810.537 1443.33 810.688 1450.81C811.096 1450.59 811.584 1450.25 812 1450.03C811.604 1450.28 811.273 1450.5 810.875 1450.75C812.338 1466.52 810.46 1488.32 798.156 1517.69C796.177 1522.41 794.508 1472.46 794.312 1465.31C794.304 1465.01 794.314 1465.02 794.281 1464.72C794.16 1463.55 793.952 1462.6 793.812 1461.47C793.503 1461.66 793.212 1461.87 792.906 1462.06C792.989 1461.96 793.641 1461.52 793.625 1461.47C793.625 1461.47 793.054 1450.47 791.188 1445.66C791.157 1445.58 790.844 1445.67 790.75 1445.62C790.833 1445.58 790.918 1445.54 791 1445.5C785.756 1423.15 776.444 1409.55 766.656 1399.16C763.897 1400.98 762.099 1402.25 759.094 1404.22C755.16 1406.79 751.388 1409.26 747.281 1411.94C729.343 1423.62 709.644 1436.12 689.156 1449C683.509 1452.55 677.875 1456.13 672.094 1459.72C660.584 1466.87 648.704 1474.04 636.875 1481.19C648.687 1490.58 660.761 1499.75 672.812 1508.28L672.812 1508.25L694.969 1523.16C770.627 1570.96 864.485 1606.73 990.438 1620.78L924.094 1382.59L922.812 1377.97L915.344 1351.12C915.344 1351.12 880.102 1349.66 868.719 1391.75C868.719 1391.75 875.893 1154.29 648.625 1237.78C649.174 1237.91 662.538 1132.38 547.062 1172.09C547.297 1171.78 536.947 1134.37 486.438 1139.72C486.909 1140.43 442.496 1137.99 432.25 1085.88Z" fill="#010431" fill-rule="nonzero" opacity="1" stroke="#010431" stroke-linecap="butt" stroke-linejoin="round" stroke-width="0.262196"/>
<path d="M851.094 1341.59C851.998 1340.81 850.676 1341.54 846.781 1344.06C846.781 1344.06 827.081 1355.74 799.781 1371.5C793.415 1375.18 784.971 1379.88 777.75 1383.97C772.218 1387.1 766.981 1390.1 760.875 1393.53C757.404 1395.48 754.954 1396.91 751.281 1398.97C746.443 1401.68 741.881 1404.25 736.812 1407.06C720.593 1416.08 704.627 1424.93 686.719 1434.53C680.952 1437.62 675.151 1440.64 669.281 1443.75C653.423 1452.13 637.319 1460.38 621.25 1468.47C595.507 1481.42 569.867 1493.83 545.562 1504.66C477.127 1535.13 420.179 1559.85 406.812 1543.12C391.161 1523.54 491.168 1433.04 532.719 1386.69C532.901 1386.48 516.621 1367.13 516.406 1367.34C455.797 1427.21 328.905 1540.48 325.781 1593.53C322.242 1653.63 443.04 1592.78 569.688 1520.75C592.269 1507.91 614.703 1494.6 636.875 1481.19C648.704 1474.04 660.584 1466.87 672.094 1459.72C677.875 1456.13 683.509 1452.55 689.156 1449C709.644 1436.12 729.344 1423.62 747.281 1411.94C751.388 1409.26 755.16 1406.79 759.094 1404.22C762.099 1402.25 763.897 1400.98 766.656 1399.16C772.28 1395.44 777.154 1392.18 782.094 1388.88C788.175 1384.81 795.277 1380.15 801.094 1376.22C828.267 1357.88 848.751 1343.63 851.094 1341.59Z" fill="#010431" fill-rule="nonzero" opacity="1" stroke="#ffffff" stroke-linecap="butt" stroke-linejoin="round" stroke-width="5.00642"/>
<path d="M934.157 837.161C934.157 790.053 973.395 751.865 1021.8 751.865C1070.2 751.865 1109.44 790.053 1109.44 837.161C1109.44 884.269 1070.2 922.458 1021.8 922.458C973.395 922.458 934.157 884.269 934.157 837.161Z" fill="#ffffff" fill-rule="nonzero" opacity="1" stroke="#ffffff" stroke-linecap="butt" stroke-linejoin="round" stroke-width="0.1" vectornator:layerName="Oval 1"/>
<path d="M1321.74 853.246C1321.74 853.246 1612.76 666.168 1652.9 705.334C1693.05 744.501 1279.21 1050.9 1237.98 1085.88C1237.98 1085.88 1731.36 779.449 1731.63 665.208C1731.91 550.967 1263.58 892.216 1321.74 853.246Z" fill="#010431" fill-rule="nonzero" opacity="1" stroke="#ffffff" stroke-linecap="butt" stroke-linejoin="round" stroke-width="8.09823" vectornator:layerName="Curve 19"/>
<path d="M946.445 837.767C946.445 796.64 979.77 763.301 1020.88 763.301C1061.99 763.301 1095.31 796.64 1095.31 837.767C1095.31 878.893 1061.99 912.233 1020.88 912.233C979.77 912.233 946.445 878.893 946.445 837.767Z" fill="#0e0131" fill-rule="nonzero" opacity="1" stroke="#ffffff" stroke-linecap="butt" stroke-linejoin="round" stroke-width="0.1" vectornator:layerName="Oval 2"/>
<path d="M977.514 820.943C977.514 789.108 1002.92 763.301 1034.26 763.301C1065.61 763.301 1091.01 789.108 1091.01 820.943C1091.01 852.778 1065.61 878.585 1034.26 878.585C1002.92 878.585 977.514 852.778 977.514 820.943Z" fill="#ffffff" fill-rule="nonzero" opacity="1" stroke="#ffffff" stroke-linecap="butt" stroke-linejoin="round" stroke-width="0.1" vectornator:layerName="Oval 3"/>
<path d="M997.25 997.161C997.25 981.656 1009.61 969.086 1024.85 969.086C1040.09 969.086 1052.45 981.656 1052.45 997.161C1052.45 1012.67 1040.09 1025.24 1024.85 1025.24C1009.61 1025.24 997.25 1012.67 997.25 997.161Z" fill="#ffffff" fill-rule="nonzero" opacity="1" stroke="#010431" stroke-linecap="butt" stroke-linejoin="round" stroke-width="0.1" vectornator:layerName="Oval 4"/>
<path d="M1193.35 1851.25C1193.35 1833.37 1207.87 1818.88 1225.78 1818.88C1243.69 1818.88 1258.21 1833.37 1258.21 1851.25C1258.21 1869.13 1243.69 1883.62 1225.78 1883.62C1207.87 1883.62 1193.35 1869.13 1193.35 1851.25Z" fill="#0e0131" fill-rule="nonzero" opacity="1" stroke="#010431" stroke-linecap="butt" stroke-linejoin="round" stroke-width="0.1" vectornator:layerName="Oval 6"/>
<path d="M1004.24 709.93C1004.24 700.065 1012.1 692.068 1021.8 692.068C1031.49 692.068 1039.36 700.065 1039.36 709.93C1039.36 719.795 1031.49 727.792 1021.8 727.792C1012.1 727.792 1004.24 719.795 1004.24 709.93Z" fill="#ffffff" fill-rule="nonzero" opacity="1" stroke="#010431" stroke-linecap="butt" stroke-linejoin="round" stroke-width="0.1" vectornator:layerName="Oval 5"/>
<path d="M1323.85 448.663C1323.85 438.798 1331.71 430.801 1341.41 430.801C1351.1 430.801 1358.97 438.798 1358.97 448.663C1358.97 458.528 1351.1 466.525 1341.41 466.525C1331.71 466.525 1323.85 458.528 1323.85 448.663Z" fill="#ffffff" fill-rule="nonzero" opacity="1" stroke="#010431" stroke-linecap="butt" stroke-linejoin="round" stroke-width="0.1" vectornator:layerName="Oval 7"/>
<path d="M1322.73 450.875C1322.73 441.01 1330.59 433.013 1340.28 433.013C1349.98 433.013 1357.84 441.01 1357.84 450.875C1357.84 460.74 1349.98 468.737 1340.28 468.737C1330.59 468.737 1322.73 460.74 1322.73 450.875Z" fill="#ffffff" fill-rule="nonzero" opacity="1" stroke="#ffffff" stroke-linecap="butt" stroke-linejoin="round" stroke-width="0.1" vectornator:layerName="Oval 8"/>
<path d="M1340.62 396.031L1340.31 435C1340.38 434.999 1340.44 434.969 1340.5 434.969C1340.57 434.969 1340.64 434.999 1340.72 435C1343.89 435.049 1346.68 436.256 1348.97 438.031L1347.5 430.719L1347.5 430.688L1344.44 415.188L1340.62 396.031Z" fill="#000000" fill-rule="nonzero" opacity="1" stroke="#010431" stroke-linecap="butt" stroke-linejoin="round" stroke-width="0.262196"/>
<path d="M1352.69 442.375C1353.53 444.049 1354.06 445.867 1354.06 447.844L1354.06 447.875L1354.06 450.844C1354.06 450.854 1354.06 450.864 1354.06 450.875C1354.06 451.099 1354.01 451.31 1354 451.531L1404.59 449.375L1405.03 449.344L1377.25 445.656L1360.38 443.406L1357.53 443.031L1352.69 442.375Z" fill="#000000" fill-rule="nonzero" opacity="1" stroke="#010431" stroke-linecap="butt" stroke-linejoin="round" stroke-width="0.262196"/>
<path d="M1340.62 396.031L1332.53 437.719C1334.74 436.147 1337.35 435.04 1340.31 435C1340.38 434.999 1340.44 434.969 1340.5 434.969C1340.57 434.969 1340.64 434.999 1340.72 435L1340.66 411.844C1340.66 411.839 1340.63 411.656 1340.62 411.656L1340.66 411.688L1340.62 396.031Z" fill="#000000" fill-rule="nonzero" opacity="1" stroke="#010431" stroke-linecap="butt" stroke-linejoin="round" stroke-width="0.262196"/>
<path d="M1328.28 442.469L1324.72 442.938L1279.22 449.094L1327 451.438C1326.99 451.247 1326.94 451.068 1326.94 450.875C1326.94 450.864 1326.94 450.854 1326.94 450.844L1326.94 447.844C1326.94 447.523 1327.01 447.221 1327.03 446.906C1327.15 445.314 1327.6 443.848 1328.28 442.469Z" fill="#000000" fill-rule="nonzero" opacity="1" stroke="#010431" stroke-linecap="butt" stroke-linejoin="round" stroke-width="0.262196"/>
<path d="M1327.03 446.906L1324.47 447.031L1279.22 449.094L1330.06 458.75C1328.33 456.696 1327.14 454.238 1327 451.438C1326.99 451.247 1326.94 451.068 1326.94 450.875C1326.94 450.864 1326.94 450.854 1326.94 450.844L1326.94 447.844C1326.94 447.523 1327.01 447.221 1327.03 446.906Z" fill="#000000" fill-rule="nonzero" opacity="1" stroke="#010431" stroke-linecap="butt" stroke-linejoin="round" stroke-width="0.262196"/>
<path d="M1332.44 460.938L1340.62 518.094L1340.69 511.281L1340.69 508.219L1341.41 463.625C1341.1 463.644 1340.81 463.719 1340.5 463.719C1337.42 463.719 1334.71 462.577 1332.44 460.938Z" fill="#000000" fill-rule="nonzero" opacity="1" stroke="#010431" stroke-linecap="butt" stroke-linejoin="round" stroke-width="0.262196"/>
<path d="M1354.06 447.875L1354.06 450.844C1354.06 450.854 1354.06 450.864 1354.06 450.875C1354.06 451.099 1354.01 451.31 1354 451.531C1353.63 458.025 1348.22 463.192 1341.41 463.625L1341.31 470L1340.75 518.094L1347.31 479.531L1347.69 477.406L1349.22 468.281L1349.84 464.562L1350.72 459.5L1356.19 458.469L1358.41 458.062L1376.16 454.75L1381.03 450.875L1376.56 454.688L1405.03 449.375L1404.59 449.375L1380.47 448.656L1374.31 448.469L1357.66 447.969L1354.06 447.875Z" fill="#000000" fill-rule="nonzero" opacity="1" stroke="#010431" stroke-linecap="butt" stroke-linejoin="round" stroke-width="0.262196"/>
<path d="M1344.23 482.17C1344.23 482.17 1347.1 452.177 1381.02 450.879" fill="none" opacity="1" stroke="#010431" stroke-linecap="butt" stroke-linejoin="round" stroke-width="5.62113" vectornator:layerName="Curve 30"/>
<path d="M1341.69 482.17C1341.69 482.17 1344.75 452.177 1381.02 450.879" fill="none" opacity="1" stroke="#010431" stroke-linecap="butt" stroke-linejoin="round" stroke-width="5.62113" vectornator:layerName="Curve 31"/>
<path d="M1339.23 490.006C1339.23 490.006 1336.36 452.502 1302.42 450.879" fill="none" opacity="1" stroke="#010431" stroke-linecap="butt" stroke-linejoin="round" stroke-width="5.62113" vectornator:layerName="Curve 32"/>
<path d="M1340.63 411.654C1340.63 411.654 1337.34 447.613 1298.44 449.17" fill="none" opacity="1" stroke="#010431" stroke-linecap="butt" stroke-linejoin="round" stroke-width="5.62113" vectornator:layerName="Curve 33"/>
<path d="M1340.63 411.654C1340.63 411.654 1343.77 447.613 1381.02 449.17" fill="none" opacity="1" stroke="#010431" stroke-linecap="butt" stroke-linejoin="round" stroke-width="5.62113" vectornator:layerName="Curve 34"/>
<path d="M1325.53 441.438C1325.2 441.438 1324.93 442.026 1324.72 442.938C1324.52 443.784 1324.37 444.9 1324.38 446.156C1324.38 446.498 1324.45 446.71 1324.47 447.031C1324.58 449.162 1324.98 450.875 1325.53 450.875L1326.94 450.875C1326.94 450.864 1326.94 450.854 1326.94 450.844L1326.94 447.844C1326.94 447.523 1327.01 447.221 1327.03 446.906C1327.15 445.314 1327.6 443.848 1328.28 442.469C1328.47 442.091 1328.78 441.795 1329 441.438L1325.53 441.438Z" fill="#000000" fill-rule="nonzero" opacity="1" stroke="#010431" stroke-linecap="butt" stroke-linejoin="round" stroke-width="5.62113"/>
<path d="M1352.03 441.438C1352.23 441.763 1352.52 442.032 1352.69 442.375C1353.53 444.049 1354.06 445.867 1354.06 447.844L1354.06 447.875L1354.06 450.844C1354.06 450.854 1354.06 450.864 1354.06 450.875L1356.69 450.875C1357.15 450.875 1357.47 449.588 1357.66 447.969C1357.72 447.366 1357.84 446.863 1357.84 446.156C1357.84 444.937 1357.72 443.869 1357.53 443.031C1357.32 442.075 1357.03 441.437 1356.69 441.438L1352.03 441.438Z" fill="#000000" fill-rule="nonzero" opacity="1" stroke="#010431" stroke-linecap="butt" stroke-linejoin="round" stroke-width="5.62113"/>
<path d="M1340.5 434.969C1340.44 434.969 1340.38 434.999 1340.31 435C1338.83 435.02 1337.42 435.303 1336.12 435.781C1334.83 436.26 1333.64 436.933 1332.53 437.719C1331.1 438.738 1329.92 439.967 1329 441.438C1328.78 441.795 1328.47 442.091 1328.28 442.469C1327.6 443.848 1327.15 445.314 1327.03 446.906C1327.01 447.221 1326.94 447.523 1326.94 447.844L1326.94 450.844C1326.94 450.854 1326.94 450.864 1326.94 450.875C1326.94 451.068 1326.99 451.247 1327 451.438C1327.07 452.838 1327.4 454.154 1327.94 455.375C1328.47 456.596 1329.2 457.723 1330.06 458.75L1332.19 459.156L1332.44 460.938C1334.71 462.577 1337.42 463.719 1340.5 463.719C1340.81 463.719 1341.1 463.644 1341.41 463.625C1348.22 463.192 1353.63 458.025 1354 451.531C1354.01 451.31 1354.06 451.099 1354.06 450.875C1354.06 450.864 1354.06 450.854 1354.06 450.844L1354.06 447.875L1354.06 447.844C1354.06 446.855 1353.93 445.911 1353.69 445C1353.45 444.089 1353.11 443.212 1352.69 442.375C1352.52 442.032 1352.23 441.762 1352.03 441.438C1351.22 440.124 1350.2 438.992 1348.97 438.031C1346.68 436.256 1343.89 435.049 1340.72 435C1340.64 434.999 1340.57 434.969 1340.5 434.969Z" fill="#000000" fill-rule="nonzero" opacity="1" stroke="#010431" stroke-linecap="butt" stroke-linejoin="round" stroke-width="25.1105"/>
<path d="M1330.06 458.75C1330.76 459.585 1331.54 460.291 1332.44 460.938L1332.19 459.156L1330.06 458.75Z" fill="#000000" fill-rule="nonzero" opacity="1" stroke="#010431" stroke-linecap="butt" stroke-linejoin="round" stroke-width="25.1105"/>
<path d="M1014.21 131.273L1013.9 170.242C1013.96 170.241 1014.02 170.211 1014.08 170.211C1014.16 170.211 1014.23 170.241 1014.3 170.242C1017.47 170.291 1020.27 171.498 1022.55 173.273L1021.08 165.961L1021.08 165.929L1018.02 150.429L1014.21 131.273Z" fill="#000000" fill-rule="nonzero" opacity="1" stroke="#010431" stroke-linecap="butt" stroke-linejoin="round" stroke-width="0.262196" vectornator:layerName="Curve 35"/>
<path d="M1026.27 177.617C1027.11 179.29 1027.64 181.109 1027.65 183.086L1027.65 183.117L1027.65 186.086C1027.65 186.096 1027.65 186.106 1027.65 186.117C1027.64 186.341 1027.6 186.552 1027.58 186.773L1078.18 184.617L1078.61 184.586L1050.83 180.898L1033.96 178.648L1031.11 178.273L1026.27 177.617Z" fill="#000000" fill-rule="nonzero" opacity="1" stroke="#010431" stroke-linecap="butt" stroke-linejoin="round" stroke-width="0.262196" vectornator:layerName="Curve 36"/>
<path d="M1014.21 131.273L1006.11 172.961C1008.33 171.389 1010.93 170.281 1013.9 170.242C1013.96 170.241 1014.02 170.211 1014.08 170.211C1014.16 170.211 1014.23 170.241 1014.3 170.242L1014.24 147.086C1014.24 147.081 1014.21 146.898 1014.21 146.898L1014.24 146.929L1014.21 131.273Z" fill="#000000" fill-rule="nonzero" opacity="1" stroke="#010431" stroke-linecap="butt" stroke-linejoin="round" stroke-width="0.262196" vectornator:layerName="Curve 37"/>
<path d="M1001.86 177.711L998.301 178.179L952.801 184.336L1000.58 186.679C1000.57 186.489 1000.52 186.31 1000.52 186.117C1000.52 186.106 1000.52 186.096 1000.52 186.086L1000.52 183.086C1000.52 182.765 1000.59 182.463 1000.61 182.148C1000.74 180.556 1001.19 179.09 1001.86 177.711Z" fill="#000000" fill-rule="nonzero" opacity="1" stroke="#010431" stroke-linecap="butt" stroke-linejoin="round" stroke-width="0.262196" vectornator:layerName="Curve 38"/>
<path d="M1000.61 182.148L998.051 182.273L952.801 184.336L1003.65 193.992C1001.92 191.938 1000.72 189.48 1000.58 186.679C1000.57 186.489 1000.52 186.31 1000.52 186.117C1000.52 186.106 1000.52 186.096 1000.52 186.086L1000.52 183.086C1000.52 182.765 1000.59 182.463 1000.61 182.148Z" fill="#000000" fill-rule="nonzero" opacity="1" stroke="#010431" stroke-linecap="butt" stroke-linejoin="round" stroke-width="0.262196" vectornator:layerName="Curve 39"/>
<path d="M1006.02 196.179L1014.21 253.336L1014.27 246.523L1014.27 243.461L1014.99 198.867C1014.69 198.886 1014.39 198.961 1014.08 198.961C1011.01 198.961 1008.3 197.819 1006.02 196.179Z" fill="#000000" fill-rule="nonzero" opacity="1" stroke="#010431" stroke-linecap="butt" stroke-linejoin="round" stroke-width="0.262196" vectornator:layerName="Curve 40"/>
<path d="M1027.65 183.117L1027.65 186.086C1027.65 186.096 1027.65 186.106 1027.65 186.117C1027.64 186.341 1027.6 186.552 1027.58 186.773C1027.22 193.267 1021.8 198.434 1014.99 198.867L1014.9 205.242L1014.33 253.336L1020.9 214.773L1021.27 212.648L1022.8 203.523L1023.43 199.804L1024.3 194.742L1029.77 193.711L1031.99 193.304L1049.74 189.992L1054.61 186.117L1050.15 189.929L1078.61 184.617L1078.18 184.617L1054.05 183.898L1047.9 183.711L1031.24 183.211L1027.65 183.117Z" fill="#000000" fill-rule="nonzero" opacity="1" stroke="#010431" stroke-linecap="butt" stroke-linejoin="round" stroke-width="0.262196" vectornator:layerName="Curve 41"/>
<path d="M1017.82 217.412C1017.82 217.412 1020.68 187.419 1054.6 186.121" fill="none" opacity="1" stroke="#010431" stroke-linecap="butt" stroke-linejoin="round" stroke-width="5.62113" vectornator:layerName="Curve 42"/>
<path d="M1015.27 217.412C1015.27 217.412 1018.33 187.419 1054.6 186.121" fill="none" opacity="1" stroke="#010431" stroke-linecap="butt" stroke-linejoin="round" stroke-width="5.62113" vectornator:layerName="Curve 43"/>
<path d="M1012.81 225.248C1012.81 225.248 1009.95 187.744 976.003 186.121" fill="none" opacity="1" stroke="#010431" stroke-linecap="butt" stroke-linejoin="round" stroke-width="5.62113" vectornator:layerName="Curve 44"/>
<path d="M1014.21 146.896C1014.21 146.896 1010.93 182.855 972.025 184.412" fill="none" opacity="1" stroke="#010431" stroke-linecap="butt" stroke-linejoin="round" stroke-width="5.62113" vectornator:layerName="Curve 45"/>
<path d="M1014.21 146.896C1014.21 146.896 1017.35 182.855 1054.6 184.412" fill="none" opacity="1" stroke="#010431" stroke-linecap="butt" stroke-linejoin="round" stroke-width="5.62113" vectornator:layerName="Curve 46"/>
<path d="M999.114 176.679C998.783 176.679 998.513 177.268 998.301 178.179C998.106 179.026 997.958 180.142 997.958 181.398C997.958 181.74 998.035 181.952 998.051 182.273C998.163 184.404 998.558 186.117 999.114 186.117L1000.52 186.117C1000.52 186.106 1000.52 186.096 1000.52 186.086L1000.52 183.086C1000.52 182.765 1000.59 182.463 1000.61 182.148C1000.74 180.556 1001.19 179.09 1001.86 177.711C1002.05 177.332 1002.36 177.037 1002.58 176.679L999.114 176.679Z" fill="#000000" fill-rule="nonzero" opacity="1" stroke="#010431" stroke-linecap="butt" stroke-linejoin="round" stroke-width="5.62113" vectornator:layerName="Curve 47"/>
<path d="M1025.61 176.679C1025.82 177.004 1026.1 177.274 1026.27 177.617C1027.11 179.29 1027.64 181.109 1027.65 183.086L1027.65 183.117L1027.65 186.086C1027.65 186.096 1027.65 186.106 1027.65 186.117L1030.27 186.117C1030.74 186.117 1031.06 184.83 1031.24 183.211C1031.31 182.608 1031.43 182.105 1031.43 181.398C1031.43 180.179 1031.3 179.111 1031.11 178.273C1030.9 177.317 1030.61 176.679 1030.27 176.679L1025.61 176.679Z" fill="#000000" fill-rule="nonzero" opacity="1" stroke="#010431" stroke-linecap="butt" stroke-linejoin="round" stroke-width="5.62113" vectornator:layerName="Curve 48"/>
<path d="M1014.08 170.211C1014.02 170.211 1013.96 170.241 1013.9 170.242C1012.41 170.262 1011.01 170.545 1009.71 171.023C1008.41 171.501 1007.22 172.175 1006.11 172.961C1004.68 173.98 1003.5 175.208 1002.58 176.679C1002.36 177.037 1002.05 177.333 1001.86 177.711C1001.19 179.09 1000.74 180.556 1000.61 182.148C1000.59 182.463 1000.52 182.765 1000.52 183.086L1000.52 186.086C1000.52 186.096 1000.52 186.106 1000.52 186.117C1000.52 186.31 1000.57 186.489 1000.58 186.679C1000.65 188.08 1000.99 189.396 1001.52 190.617C1002.05 191.838 1002.78 192.965 1003.65 193.992L1005.77 194.398L1006.02 196.179C1008.3 197.819 1011.01 198.961 1014.08 198.961C1014.39 198.961 1014.69 198.886 1014.99 198.867C1021.8 198.434 1027.22 193.267 1027.58 186.773C1027.6 186.552 1027.64 186.341 1027.65 186.117C1027.65 186.106 1027.65 186.096 1027.65 186.086L1027.65 183.117L1027.65 183.086C1027.65 182.097 1027.51 181.153 1027.27 180.242C1027.03 179.331 1026.69 178.454 1026.27 177.617C1026.1 177.274 1025.82 177.004 1025.61 176.679C1024.8 175.366 1023.79 174.234 1022.55 173.273C1020.27 171.498 1017.47 170.291 1014.3 170.242C1014.23 170.241 1014.16 170.211 1014.08 170.211Z" fill="#000000" fill-rule="nonzero" opacity="1" stroke="#010431" stroke-linecap="butt" stroke-linejoin="round" stroke-width="25.1105" vectornator:layerName="Curve 49"/>
<path d="M1003.65 193.992C1004.35 194.827 1005.12 195.533 1006.02 196.179L1005.77 194.398L1003.65 193.992Z" fill="#000000" fill-rule="nonzero" opacity="1" stroke="#010431" stroke-linecap="butt" stroke-linejoin="round" stroke-width="25.1105" vectornator:layerName="Curve 50"/>
<path d="M693.568 402.219L693.255 441.188C693.32 441.187 693.378 441.156 693.443 441.156C693.518 441.156 693.587 441.186 693.661 441.188C696.831 441.236 699.628 442.443 701.911 444.219L700.443 436.906L700.443 436.875L697.38 421.375L693.568 402.219Z" fill="#000000" fill-rule="nonzero" opacity="1" stroke="#010431" stroke-linecap="butt" stroke-linejoin="round" stroke-width="0.262196" vectornator:layerName="Curve 51"/>
<path d="M705.63 448.562C706.469 450.236 707.005 452.055 707.005 454.031L707.005 454.062L707.005 457.031C707.005 457.042 707.005 457.052 707.005 457.062C707.005 457.287 706.955 457.497 706.943 457.719L757.536 455.562L757.974 455.531L730.193 451.844L713.318 449.594L710.474 449.219L705.63 448.562Z" fill="#000000" fill-rule="nonzero" opacity="1" stroke="#010431" stroke-linecap="butt" stroke-linejoin="round" stroke-width="0.262196" vectornator:layerName="Curve 52"/>
<path d="M693.568 402.219L685.474 443.906C687.687 442.334 690.288 441.227 693.255 441.188C693.32 441.187 693.378 441.156 693.443 441.156C693.518 441.156 693.587 441.186 693.661 441.188L693.599 418.031C693.599 418.026 693.568 417.844 693.568 417.844L693.599 417.875L693.568 402.219Z" fill="#000000" fill-rule="nonzero" opacity="1" stroke="#010431" stroke-linecap="butt" stroke-linejoin="round" stroke-width="0.262196" vectornator:layerName="Curve 53"/>
<path d="M681.224 448.656L677.661 449.125L632.161 455.281L679.943 457.625C679.933 457.434 679.881 457.255 679.88 457.062C679.88 457.052 679.88 457.042 679.88 457.031L679.88 454.031C679.88 453.71 679.95 453.409 679.974 453.094C680.097 451.501 680.546 450.035 681.224 448.656Z" fill="#000000" fill-rule="nonzero" opacity="1" stroke="#010431" stroke-linecap="butt" stroke-linejoin="round" stroke-width="0.262196" vectornator:layerName="Curve 54"/>
<path d="M679.974 453.094L677.411 453.219L632.161 455.281L683.005 464.938C681.277 462.884 680.079 460.426 679.943 457.625C679.933 457.434 679.881 457.255 679.88 457.062C679.88 457.052 679.88 457.042 679.88 457.031L679.88 454.031C679.88 453.71 679.95 453.409 679.974 453.094Z" fill="#000000" fill-rule="nonzero" opacity="1" stroke="#010431" stroke-linecap="butt" stroke-linejoin="round" stroke-width="0.262196" vectornator:layerName="Curve 55"/>
<path d="M685.38 467.125L693.568 524.281L693.63 517.469L693.63 514.406L694.349 469.812C694.045 469.832 693.752 469.906 693.443 469.906C690.366 469.906 687.655 468.765 685.38 467.125Z" fill="#000000" fill-rule="nonzero" opacity="1" stroke="#010431" stroke-linecap="butt" stroke-linejoin="round" stroke-width="0.262196" vectornator:layerName="Curve 56"/>
<path d="M707.005 454.062L707.005 457.031C707.005 457.042 707.005 457.052 707.005 457.062C707.005 457.287 706.955 457.497 706.943 457.719C706.576 464.213 701.165 469.379 694.349 469.812L694.255 476.188L693.693 524.281L700.255 485.719L700.63 483.594L702.161 474.469L702.786 470.75L703.661 465.688L709.13 464.656L711.349 464.25L729.099 460.938L733.974 457.062L729.505 460.875L757.974 455.562L757.536 455.562L733.411 454.844L727.255 454.656L710.599 454.156L707.005 454.062Z" fill="#000000" fill-rule="nonzero" opacity="1" stroke="#010431" stroke-linecap="butt" stroke-linejoin="round" stroke-width="0.262196" vectornator:layerName="Curve 57"/>
<path d="M697.176 488.358C697.176 488.358 700.039 458.365 733.963 457.066" fill="none" opacity="1" stroke="#010431" stroke-linecap="butt" stroke-linejoin="round" stroke-width="5.62113" vectornator:layerName="Curve 58"/>
<path d="M694.628 488.358C694.628 488.358 697.69 458.365 733.963 457.066" fill="none" opacity="1" stroke="#010431" stroke-linecap="butt" stroke-linejoin="round" stroke-width="5.62113" vectornator:layerName="Curve 59"/>
<path d="M692.173 496.193C692.173 496.193 689.308 458.69 655.363 457.066" fill="none" opacity="1" stroke="#010431" stroke-linecap="butt" stroke-linejoin="round" stroke-width="5.62113" vectornator:layerName="Curve 60"/>
<path d="M693.569 417.841C693.569 417.841 690.285 453.801 651.385 455.357" fill="none" opacity="1" stroke="#010431" stroke-linecap="butt" stroke-linejoin="round" stroke-width="5.62113" vectornator:layerName="Curve 61"/>
<path d="M693.569 417.841C693.569 417.841 696.714 453.801 733.963 455.357" fill="none" opacity="1" stroke="#010431" stroke-linecap="butt" stroke-linejoin="round" stroke-width="5.62113" vectornator:layerName="Curve 62"/>
<path d="M678.474 447.625C678.143 447.625 677.873 448.214 677.661 449.125C677.466 449.971 677.318 451.088 677.318 452.344C677.318 452.685 677.395 452.898 677.411 453.219C677.523 455.35 677.918 457.063 678.474 457.062L679.88 457.062C679.88 457.052 679.88 457.042 679.88 457.031L679.88 454.031C679.88 453.71 679.95 453.409 679.974 453.094C680.097 451.501 680.546 450.035 681.224 448.656C681.409 448.278 681.72 447.982 681.943 447.625L678.474 447.625Z" fill="#000000" fill-rule="nonzero" opacity="1" stroke="#010431" stroke-linecap="butt" stroke-linejoin="round" stroke-width="5.62113" vectornator:layerName="Curve 63"/>
<path d="M704.974 447.625C705.176 447.95 705.458 448.219 705.63 448.562C706.469 450.236 707.004 452.054 707.005 454.031L707.005 454.062L707.005 457.031C707.005 457.042 707.005 457.052 707.005 457.062L709.63 457.062C710.096 457.062 710.417 455.776 710.599 454.156C710.667 453.554 710.787 453.051 710.786 452.344C710.786 451.125 710.659 450.057 710.474 449.219C710.262 448.263 709.97 447.625 709.63 447.625L704.974 447.625Z" fill="#000000" fill-rule="nonzero" opacity="1" stroke="#010431" stroke-linecap="butt" stroke-linejoin="round" stroke-width="5.62113" vectornator:layerName="Curve 64"/>
<path d="M693.443 441.156C693.378 441.156 693.32 441.187 693.255 441.188C691.772 441.207 690.365 441.491 689.068 441.969C687.77 442.447 686.581 443.12 685.474 443.906C684.038 444.926 682.859 446.154 681.943 447.625C681.72 447.982 681.409 448.278 681.224 448.656C680.546 450.035 680.097 451.501 679.974 453.094C679.95 453.409 679.88 453.71 679.88 454.031L679.88 457.031C679.88 457.042 679.88 457.052 679.88 457.062C679.881 457.255 679.933 457.434 679.943 457.625C680.011 459.025 680.348 460.341 680.88 461.562C681.413 462.784 682.141 463.911 683.005 464.938L685.13 465.344L685.38 467.125C687.655 468.765 690.366 469.906 693.443 469.906C693.752 469.906 694.045 469.832 694.349 469.812C701.165 469.379 706.576 464.213 706.943 457.719C706.955 457.497 707.005 457.287 707.005 457.062C707.005 457.052 707.005 457.042 707.005 457.031L707.005 454.062L707.005 454.031C707.005 453.043 706.869 452.098 706.63 451.188C706.391 450.277 706.049 449.399 705.63 448.562C705.458 448.22 705.176 447.95 704.974 447.625C704.159 446.311 703.148 445.18 701.911 444.219C699.628 442.443 696.831 441.236 693.661 441.188C693.587 441.186 693.518 441.156 693.443 441.156Z" fill="#000000" fill-rule="nonzero" opacity="1" stroke="#010431" stroke-linecap="butt" stroke-linejoin="round" stroke-width="25.1105" vectornator:layerName="Curve 65"/>
<path d="M683.005 464.938C683.708 465.772 684.483 466.479 685.38 467.125L685.13 465.344L683.005 464.938Z" fill="#000000" fill-rule="nonzero" opacity="1" stroke="#010431" stroke-linecap="butt" stroke-linejoin="round" stroke-width="25.1105" vectornator:layerName="Curve 66"/>
<path d="M1575.87 846.529C1576.23 848.431 1610 952.487 1588.94 1105.71" fill="none" opacity="1" stroke="#010431" stroke-linecap="butt" stroke-linejoin="round" stroke-width="4.02252" vectornator:layerName="Curve 67"/>
<path d="M1572.77 849.902C1572.77 849.902 1606.45 1065.46 1533.97 1150.61C1535.06 1150.37 1572.26 1153.07 1584.99 1111.31C1584.54 1110.44 1611.7 995.332 1572.77 849.902Z" fill="#000000" fill-rule="nonzero" opacity="1" stroke="#010431" stroke-linecap="butt" stroke-linejoin="round" stroke-width="4.02252" vectornator:layerName="Curve 74"/>
<path d="M452.375 857.593C452.375 857.593 417.031 1068.26 495.217 1153.41C494.035 1153.17 453.915 1155.86 440.18 1114.11C440.669 1113.24 410.382 1003.02 452.375 857.593Z" fill="#000000" fill-rule="nonzero" opacity="1" stroke="#010431" stroke-linecap="butt" stroke-linejoin="round" stroke-width="4.02252" vectornator:layerName="Curve 71"/>
<path d="M1574.02 848.912C1574.02 848.912 1606.45 1065.46 1533.97 1150.61C1535.06 1150.37 1572.26 1153.07 1584.99 1111.31C1584.54 1110.44 1612.95 994.342 1574.02 848.912Z" fill="#000000" fill-rule="nonzero" opacity="1" stroke="#010431" stroke-linecap="butt" stroke-linejoin="round" stroke-width="4.02252" vectornator:layerName="Curve 72"/>
<path d="M1573.68 854.794C1573.68 854.794 1606.45 1065.46 1533.97 1150.61C1535.06 1150.37 1572.26 1153.07 1584.99 1111.31C1584.54 1110.44 1612.61 1000.22 1573.68 854.794Z" fill="#000000" fill-rule="nonzero" opacity="1" stroke="#010431" stroke-linecap="butt" stroke-linejoin="round" stroke-width="4.02252" vectornator:layerName="Curve 73"/>
<path d="M1573.02 851.493C1573.02 851.493 1606.45 1065.46 1533.97 1150.61C1535.06 1150.37 1572.26 1153.07 1584.99 1111.31C1584.54 1110.44 1611.95 996.923 1573.02 851.493Z" fill="#000000" fill-rule="nonzero" opacity="1" stroke="#010431" stroke-linecap="butt" stroke-linejoin="round" stroke-width="4.02252" vectornator:layerName="Curve 75"/>
<path d="M1326.23 449.498C1326.23 441.644 1332.73 435.278 1340.75 435.278C1348.77 435.278 1355.27 441.644 1355.27 449.498C1355.27 457.352 1348.77 463.719 1340.75 463.719C1332.73 463.719 1326.23 457.352 1326.23 449.498Z" fill="#ffffff" fill-rule="nonzero" opacity="1" stroke="#ffffff" stroke-linecap="butt" stroke-linejoin="round" stroke-width="0.1" vectornator:layerName="Oval 9"/>
<path d="M999.689 184.412C999.689 176.558 1006.19 170.191 1014.21 170.191C1022.23 170.191 1028.73 176.558 1028.73 184.412C1028.73 192.265 1022.23 198.632 1014.21 198.632C1006.19 198.632 999.689 192.265 999.689 184.412Z" fill="#ffffff" fill-rule="nonzero" opacity="1" stroke="#ffffff" stroke-linecap="butt" stroke-linejoin="round" stroke-width="0.1" vectornator:layerName="Oval 10"/>
<path d="M678.922 455.357C678.922 447.504 685.423 441.137 693.443 441.137C701.462 441.137 707.963 447.504 707.963 455.357C707.963 463.211 701.462 469.578 693.443 469.578C685.423 469.578 678.922 463.211 678.922 455.357Z" fill="#ffffff" fill-rule="nonzero" opacity="1" stroke="#ffffff" stroke-linecap="butt" stroke-linejoin="round" stroke-width="0.1" vectornator:layerName="Oval 11"/>
</g>
</svg>
