<?xml version="1.0" encoding="UTF-8" standalone="no"?>
<!-- Created with Inkscape (http://www.inkscape.org/) -->

<svg
   width="210mm"
   height="297mm"
   viewBox="0 0 210 297"
   version="1.1"
   id="svg1"
   inkscape:version="1.3 (0e150ed6c4, 2023-07-21)"
   sodipodi:docname="Rocket_Logo.svg"
   inkscape:export-filename="Rocket_Logo.png"
   inkscape:export-xdpi="96"
   inkscape:export-ydpi="96"
   xmlns:inkscape="http://www.inkscape.org/namespaces/inkscape"
   xmlns:sodipodi="http://sodipodi.sourceforge.net/DTD/sodipodi-0.dtd"
   xmlns="http://www.w3.org/2000/svg"
   xmlns:svg="http://www.w3.org/2000/svg">
  <sodipodi:namedview
     id="namedview1"
     pagecolor="#ffffff"
     bordercolor="#000000"
     borderopacity="0.25"
     inkscape:showpageshadow="2"
     inkscape:pageopacity="0.0"
     inkscape:pagecheckerboard="0"
     inkscape:deskcolor="#d1d1d1"
     inkscape:document-units="mm"
     inkscape:zoom="1.0066252"
     inkscape:cx="368.55822"
     inkscape:cy="519.55781"
     inkscape:window-width="2400"
     inkscape:window-height="1284"
     inkscape:window-x="-9"
     inkscape:window-y="-9"
     inkscape:window-maximized="1"
     inkscape:current-layer="layer1"
     inkscape:export-bgcolor="#ffffffff" />
  <defs
     id="defs1" />
  <g
     inkscape:label="Layer 1"
     inkscape:groupmode="layer"
     id="layer1">
    <path
       style="fill:#000000;stroke-width:0.262842"
       d="m 96.515578,208.91597 c -13.47821,-2.29837 -24.44298,-6.36949 -34.15782,-12.6825 -2.62607,-1.7065 -6.32169,-4.48525 -6.31545,-4.7486 0.002,-0.10193 1.80617,-1.29945 4.00834,-2.66115 2.20218,-1.36171 5.97282,-3.74341 8.37922,-5.29266 l 4.37527,-2.81683 0.5218,0.70577 c 1.7957,2.42881 2.60788,5.23487 2.82148,9.74812 0.27075,5.72073 0.47261,6.06504 1.55219,2.64756 0.85299,-2.70018 1.08158,-5.39679 0.68078,-8.03104 l -0.3192,-2.09797 0.86,-0.71795 c 1.77896,-1.48515 4.70927,-1.94612 6.49879,-1.02233 1.94619,1.00466 3.77497,3.55045 4.50918,6.27709 0.43516,1.6161 0.80289,1.11095 0.80289,-1.10293 0,-1.60888 -0.12814,-2.17026 -0.80421,-3.5232 -2.14016,-4.28284 -7.81598,-5.79657 -11.93647,-3.18343 -0.66451,0.42142 -1.2928,0.7618 -1.3962,0.7564 -0.1034,-0.005 -0.48972,-0.44751 -0.85849,-0.98248 l -0.67048,-0.97268 4.5474,-3.11657 c 2.50107,-1.71412 4.5474,-3.27576 4.5474,-3.47032 0,-0.61576 -0.40379,-0.63719 -1.33277,-0.0707 -0.49576,0.30229 -2.70781,1.5946 -4.91567,2.87178 l -4.01429,2.32216 -1.63681,-1.32635 c -2.66627,-2.16055 -5.65511,-3.65639 -8.90175,-4.45511 l -1.21957,-0.30003 -0.10974,-2.67021 c -0.0967,-2.35412 -0.20698,-2.85964 -0.93118,-4.27043 -1.05688,-2.05886 -3.27544,-4.11449 -5.09169,-4.71775 -2.25471,-0.74889 -4.94941,-0.45136 -7.52005,0.83031 l -2.0908,1.04243 -0.46059,-1.29682 c -1.32571,-3.73263 -6.4332,-6.41834 -9.79233,-5.14917 -1.3493,0.5098 -2.97409,2.43207 -2.97409,3.5186 0,0.70598 0.61866,0.43844 1.78933,-0.77381 1.44794,-1.49935 2.76466,-1.93686 4.46256,-1.48274 1.66525,0.44539 3.4503,1.7935 4.39296,3.31768 0.70183,1.13478 0.80326,1.5651 0.9202,3.90398 0.0827,1.65334 0.24442,2.6659 0.436,2.72911 0.16751,0.0553 0.6148,-0.4695 0.99397,-1.16616 1.6508,-3.03307 6.38596,-4.62905 9.28546,-3.12966 2.84858,1.47306 4.4994,4.92936 3.89449,8.15383 l -0.17744,0.94581 h -1.50991 c -1.75759,0 -4.06869,0.55187 -5.61528,1.34088 -2.27691,1.1616 -4.72099,4.45488 -5.11694,6.89485 -0.19679,1.21267 0.28207,1.29164 0.91027,0.1501 1.80766,-3.28485 4.36566,-4.78168 9.46867,-5.54066 4.17677,-0.62121 9.33854,1.01843 13.02838,4.1385 l 0.95424,0.80687 -5.06215,2.78097 c -2.78417,1.52952 -6.92638,3.74998 -9.20491,4.93433 l -4.14276,2.15338 -1.8198,-1.61338 c -6.34547,-5.62568 -13.19102,-15.84483 -17.1924,-25.66511 -2.82556,-6.93457 -5.12053,-15.79316 -5.54302,-21.39608 -0.0709,-0.93966 -0.24862,-2.55255 -0.39503,-3.58419 -1.03307,-7.27947 -0.4109,-16.99854 1.62985,-25.45985 0.86326,-3.57924 1.22591,-3.88555 0.7202,-0.60831 -0.16316,1.05739 -0.36312,5.06856 -0.44435,8.91372 -0.16559,7.83815 0.094,11.44535 1.14653,15.93437 0.86837,3.70343 0.9761,4.38392 0.50123,3.16581 -0.55051,-1.4121 -1.37514,-5.43144 -1.74,-8.48096 -0.37298,-3.11734 -0.45656,-11.48847 -0.15352,-15.37626 0.11832,-1.51791 0.1447,-2.69057 0.0586,-2.6059 -0.35577,0.34999 -1.458,8.03681 -1.73443,12.09576 -0.472,6.9306 0.38099,16.27321 1.72856,18.93253 0.80162,1.58191 2.51318,3.03036 4.15802,3.51883 1.98964,0.59086 2.16706,0.52452 1.37489,-0.51407 -0.70222,-0.92067 -0.94313,-1.5603 -0.37289,-0.99005 0.17348,0.17348 0.93786,0.31541 1.69862,0.31541 2.70375,0 5.60354,1.72447 6.39346,3.80211 l 0.23592,0.62053 1.63918,-0.51017 c 7.0872,-2.20578 11.75963,0.70916 11.89148,7.41861 0.0296,1.50382 0.10739,1.81266 0.43034,1.70738 8.65311,-2.82063 13.92411,-2.98026 18.7932,-0.56914 5.72268,2.83382 9.32891,9.54757 10.06049,18.72973 l 0.20525,2.57614 0.5974,-1.31421 c 0.74254,-1.63348 1.95772,-2.93783 3.33032,-3.57469 1.58367,-0.7348 2.14482,-0.65391 2.46186,0.35488 0.58876,1.87337 9.497452,34.09838 9.497452,34.35472 0,0.40635 -1.54885,0.30074 -5.519682,-0.37639 z"
       id="path92-0" />
    <path
       style="fill:#000000;stroke-width:0.262842"
       d="m 111.07175,209.10709 c 0.0744,-0.25299 2.22522,-8.1481 4.77957,-17.5447 2.55436,-9.3966 4.67767,-17.12207 4.71847,-17.16771 0.0408,-0.0456 0.54101,0.0427 1.11157,0.19635 1.73984,0.46849 3.09156,1.65005 3.96168,3.46297 l 0.7838,1.63307 0.17476,-2.07902 c 0.41135,-4.89334 1.48083,-8.95501 3.24659,-12.32986 1.34471,-2.57011 4.349,-5.57177 6.68241,-6.67655 1.93438,-0.91586 4.99212,-1.60357 7.12252,-1.60191 2.59305,0.002 7.70816,1.07569 10.8276,2.27273 0.21329,0.0818 0.35352,-0.51577 0.45332,-1.93188 0.20187,-2.86445 0.98642,-4.79931 2.47861,-6.11279 0.66031,-0.58123 1.62905,-1.1758 2.15275,-1.32127 1.51356,-0.42042 4.24431,-0.31145 6.47187,0.25826 2.44104,0.62431 2.23416,0.6085 2.23416,0.17086 0,-0.19516 0.344,-0.82971 0.76445,-1.41012 1.00447,-1.38663 3.09607,-2.44052 4.84357,-2.44052 1.46178,0 1.52973,-0.0581 2.91885,-2.497 1.77425,-3.11503 3.15288,-7.99937 3.85782,-13.66778 0.46369,-3.72856 0.38871,-14.61408 -0.13308,-19.31889 -0.23248,-2.09616 -0.42292,-3.88726 -0.4232,-3.98022 -2.7e-4,-0.093 0.19115,-0.24256 0.42542,-0.33246 0.3276,-0.12571 0.39394,-0.0411 0.28735,0.36651 -0.0865,0.33087 -0.0347,0.46577 0.13785,0.3591 0.17738,-0.10962 0.2293,0.0758 0.14488,0.51737 -0.0724,0.37852 -0.0409,0.63215 0.07,0.56363 0.27584,-0.17047 0.60149,1.88418 0.36045,2.2742 -0.11423,0.18481 -0.0818,0.24405 0.0792,0.14457 0.27994,-0.17301 0.83417,2.97278 1.42778,8.10398 0.43799,3.7861 0.35423,14.53 -0.14447,18.53036 -0.22527,1.80704 -0.46223,3.75864 -0.52657,4.33689 -0.75484,6.78376 -3.39248,16.19692 -6.51736,23.25909 -10.63727,24.04 -30.8432,38.94175 -59.31241,43.74251 -4.90026,0.82634 -5.64734,0.85646 -5.4602,0.22023 z m 24.99153,-17.01902 c 0.2854,-5.7738 1.1487,-8.51106 3.53876,-11.22028 4.51269,-5.1153 10.89874,-7.28654 16.9096,-5.74922 3.52085,0.90048 5.36309,2.16426 6.78973,4.65778 0.97128,1.69762 1.50041,1.59126 1.02257,-0.20555 -0.76245,-2.86699 -2.98211,-5.4824 -5.72035,-6.74026 -1.14485,-0.5259 -2.04456,-0.71675 -3.77613,-0.80101 l -2.27319,-0.11062 -0.1581,-0.7905 c -0.88001,-4.40004 2.30709,-8.86098 6.33738,-8.87033 2.49971,-0.006 5.56957,1.84305 6.50514,3.91777 0.79794,1.76951 1.19284,1.4065 1.19284,-1.09652 0,-1.1936 0.11555,-2.57309 0.25678,-3.06552 0.80155,-2.79484 4.30598,-5.35178 6.71541,-4.89977 0.54915,0.10302 1.44161,0.66925 2.31959,1.47167 1.92967,1.76361 2.41718,1.73516 1.6519,-0.0964 -0.76979,-1.84238 -2.95876,-2.97005 -5.29686,-2.72874 -3.15294,0.32542 -6.07549,2.93007 -7.07465,6.30515 -0.12677,0.4282 -0.22131,0.4124 -1.12977,-0.1888 -1.4727,-0.97458 -3.90065,-1.72413 -5.58482,-1.72413 -2.36026,0 -3.85051,0.64974 -5.67978,2.47633 -2.09083,2.08777 -2.80198,3.82643 -2.90468,7.1015 l -0.0737,2.34969 -1.30316,0.3335 c -4.44704,1.13808 -8.92076,4.06046 -11.36117,7.42149 -0.6359,0.8758 -1.24079,1.59581 -1.3442,1.60002 -0.1034,0.004 -0.73913,-0.34185 -1.41273,-0.76904 -3.9418,-2.49981 -9.29953,-0.99799 -11.39425,3.19392 -0.67607,1.35294 -0.80421,1.91432 -0.80421,3.5232 0,1.0526 0.097,1.97376 0.21552,2.04702 0.11854,0.0733 0.47838,-0.6829 0.79963,-1.68037 1.78339,-5.53725 5.8599,-7.42744 10.15035,-4.70652 1.11348,0.70615 1.22593,0.86428 1.06666,1.50001 -0.37429,1.49407 -0.46176,5.89154 -0.14882,7.48219 0.44675,2.27077 1.33633,4.57346 1.58766,4.10965 0.10953,-0.20213 0.28099,-2.02341 0.38103,-4.0473 z m 42.15188,-46.02451 c 2.36804,-1.18004 3.43173,-3.1457 3.96782,-7.3324 0.547,-4.27187 0.74429,-9.68271 0.52212,-14.32007 -0.22822,-4.76359 -1.15508,-11.81201 -1.60784,-12.22697 -0.20306,-0.1861 -0.23196,-0.10937 -0.099,0.26284 0.36044,1.00892 0.49165,12.5314 0.18108,15.90194 -0.71912,7.80436 -2.36691,13.55164 -5.03021,17.5447 l -0.56976,0.85424 h 0.63131 c 0.34722,0 1.24923,-0.30793 2.00447,-0.68428 z"
       id="path93-6" />
    <path
       style="fill:#000000;stroke-width:0.262842"
       d="m 104.09211,143.84004 c -1.81227,-0.2056 -4.630252,-1.29477 -5.304312,-2.05015 -0.64539,-0.72326 -5.24033,-17.53167 -6.87164,-25.13668 -1.57608,-7.3475 -1.76777,-10.58747 -0.91094,-15.39677 1.00003,-5.613022 3.98422,-16.03104 6.61767,-23.10276 1.8351,-4.92787 2.34702,-5.93531 2.978242,-5.86102 0.2828,0.0333 1.34213,0.19508 2.35407,0.35954 2.26912,0.36879 6.71615,0.17858 8.20187,-0.35082 l 1.10514,-0.39378 1.68707,3.84206 c 3.32585,7.57416 5.82235,14.943648 7.17821,21.189628 0.6698,3.085512 0.74006,3.888602 0.72433,8.279522 -0.0157,4.39484 -0.11081,5.39035 -0.98828,10.34934 -1.22954,6.94873 -2.7244,14.11508 -4.26676,20.45492 -1.30895,5.38039 -1.7154,6.19662 -3.44566,6.91957 -1.84664,0.77157 -6.28903,1.21164 -9.05901,0.8974 z m 4.76493,-13.93886 c 1.27132,-0.71453 1.852,-1.73311 1.852,-3.24865 0,-2.38403 -1.43868,-3.88397 -3.72536,-3.88397 -2.1832,0 -3.67802,1.57717 -3.67802,3.88065 0,2.95597 2.9761,4.69936 5.55138,3.25197 z m 0.47712,-13.5136 c 3.61198,-0.85159 6.49375,-3.1382 8.02252,-6.36564 0.79714,-1.68289 0.84336,-1.94608 0.84336,-4.80313 0,-2.85242 -0.0472,-3.12222 -0.83715,-4.78986 -2.34516,-4.950502 -7.82972,-7.628092 -13.27767,-6.482232 -3.3835,0.71166 -6.764012,3.32023 -8.168372,6.303132 -4.1319,8.77626 3.86175,18.39065 13.417312,16.13773 z m -1.54035,-26.006942 c 2.27699,-1.17748 1.30715,-4.612128 -1.30232,-4.612128 -2.41964,0 -3.20932,3.555778 -1.03411,4.656388 0.85442,0.43231 1.43615,0.42129 2.33643,-0.0443 z"
       id="path94-3" />
    <path
       style="fill:#000000;stroke-width:0.262842"
       d="m 84.420798,160.4946 c -2.27193,-5.9987 -3.88512,-12.01557 -4.11741,-15.35711 l -0.15763,-2.26746 1.95898,-1.55673 c 2.81177,-2.23441 5.87832,-4.36013 8.66776,-6.00846 l 2.42592,-1.43352 2.28838,6.37255 2.28839,6.37255 -1.48405,1.29066 c -4.64942,4.04358 -8.5316,8.61558 -10.29324,12.12224 l -0.99967,1.98989 z"
       id="path95-4" />
    <path
       style="fill:#000000;stroke-width:0.262842"
       d="m 128.37154,161.11781 c -0.71441,-1.97569 -3.6169,-5.85227 -6.73085,-8.98978 -1.74779,-1.76102 -3.72295,-3.66241 -4.38922,-4.22531 l -1.21142,-1.02346 1.97102,-6.43963 c 1.08406,-3.5418 2.00741,-6.48272 2.05189,-6.53538 0.11935,-0.14133 5.20182,2.58236 9.63641,5.16413 l 3.87692,2.2571 v 1.49396 c 0,2.93905 -1.28379,8.75623 -3.46275,15.69057 -0.60189,1.91546 -1.16889,3.48266 -1.26,3.48266 -0.0911,0 -0.308,-0.39369 -0.482,-0.87486 z"
       id="path96-8" />
    <path
       style="fill:#000000;stroke-width:0.262842"
       d="m 81.638438,133.18405 c -0.7082,-0.37649 -2.00473,-1.21098 -2.88117,-1.85443 l -1.59352,-1.16991 -0.31605,-9.4876 c -0.17383,-5.21818 -0.26305,-9.54061 -0.19827,-9.60539 0.0648,-0.0648 0.55907,0.0279 1.09843,0.20586 0.98398,0.32475 4.4839,0.23166 5.42849,-0.14438 0.43383,-0.17271 0.45997,0.46816 0.45997,11.27864 0,9.45142 -0.0623,11.46174 -0.35511,11.46174 -0.19532,0 -0.93456,-0.30804 -1.64277,-0.68453 z"
       id="path97-1" />
    <path
       style="fill:#000000;stroke-width:0.262842"
       d="m 66.025918,240.74195 c 0,-13.75302 0.0432,-15.36471 0.41576,-15.50767 0.22866,-0.0878 1.58887,-0.15954 3.02268,-0.15954 h 2.60692 v 15.50767 15.50766 h -3.02268 -3.02268 z"
       id="path98-1" />
    <path
       style="fill:#000000;stroke-width:0.262842"
       d="m 77.590958,240.74195 c 0,-13.75302 0.0432,-15.36471 0.41576,-15.50767 0.22867,-0.0878 1.58887,-0.15954 3.02268,-0.15954 h 2.60692 v 15.50767 15.50766 h -3.02268 -3.02268 z"
       id="path99-7" />
    <path
       style="fill:#000000;stroke-width:0.262842"
       d="m 97.829788,255.85187 c -2.70463,-0.13608 -3.48513,-0.27107 -4.41445,-0.76346 -2.56875,-1.36101 -4.3252,-3.76848 -4.68656,-6.4236 l -0.16991,-1.24852 h 3.18983 c 3.03939,0 3.18983,0.0254 3.18983,0.53824 0,0.29604 0.31296,0.82828 0.69548,1.18279 0.694,0.64318 0.70772,0.64456 6.422522,0.64456 3.14986,0 6.02476,-0.11319 6.38865,-0.25154 2.15781,-0.8204 1.82778,-5.27876 -0.41773,-5.6431 -0.47673,-0.0774 -3.52805,-0.17357 -6.78072,-0.21382 -5.744112,-0.0711 -5.955962,-0.0928 -7.377072,-0.75695 -2.72079,-1.27153 -4.4524,-3.692 -5.02338,-7.02173 -0.2694,-1.57099 -0.2489,-2.04992 0.1509,-3.5269 0.63914,-2.36118 2.18061,-4.62672 4.00127,-5.88076 l 1.47809,-1.01808 6.975822,-0.19473 c 7.76927,-0.21689 8.49589,-0.12267 10.88685,1.41161 1.98265,1.27226 3.48626,3.59928 3.79873,5.87901 l 0.16224,1.18363 h -3.05841 c -2.47009,0 -3.05841,-0.072 -3.05841,-0.3741 0,-0.20575 -0.31853,-0.75264 -0.70784,-1.21531 l -0.70784,-0.84122 -5.92892,0.11345 c -5.066762,0.097 -6.030162,0.18 -6.625152,0.57103 -1.49924,0.9853 -1.64984,3.34836 -0.2974,4.66652 l 0.73079,0.71226 6.176782,0.11636 c 5.58513,0.10522 6.32147,0.1722 7.68725,0.69924 1.97698,0.76291 4.15862,2.75546 4.8975,4.47305 1.58774,3.6908 0.65376,8.39385 -2.18693,11.0123 -2.1419,1.97435 -3.07317,2.24462 -7.90082,2.29298 -2.31301,0.0233 -5.683962,-0.0323 -7.490992,-0.12321 z"
       id="path100-8" />
    <path
       style="fill:#000000;stroke-width:0.182792"
       d="m 126.49862,253.4221 c -1.84454,-0.42061 -3.61909,-1.45599 -5.1699,-3.01637 -2.12788,-2.14106 -3.10613,-4.48492 -3.10613,-7.4423 0,-2.03628 0.25843,-3.162 1.14164,-4.97291 1.79727,-3.68513 5.46284,-5.93573 9.64308,-5.92072 4.12154,0.0148 7.88181,2.4287 9.6121,6.17045 0.32543,0.70375 0.6493,1.58801 0.7197,1.96502 l 0.128,0.68547 h -2.10614 -2.10613 l -0.39045,-0.80655 c -0.63591,-1.31362 -1.73508,-2.41127 -3.0753,-3.07106 -1.10688,-0.54492 -1.37407,-0.60079 -2.87318,-0.60079 -1.49911,0 -1.76631,0.0558 -2.8732,0.60079 -5.70668,2.80939 -4.48459,11.32146 1.78796,12.45337 2.77441,0.50066 5.97004,-1.13533 6.97053,-3.56854 l 0.32963,-0.80164 2.1478,-7e-4 c 1.27702,-3.6e-4 2.1478,0.0718 2.1478,0.17793 0,0.38562 -0.90713,2.55971 -1.3817,3.31148 -1.26701,2.00707 -3.55132,3.81184 -5.77668,4.56397 -1.49247,0.50442 -4.19423,0.6323 -5.76943,0.27309 z"
       id="path101-2" />
    <path
       style="fill:#000000;stroke-width:0.182792"
       d="m 127.61427,245.56352 c -0.65664,-0.28579 -1.44578,-1.24394 -1.62892,-1.97781 -0.45232,-1.81251 1.55503,-3.91874 3.33498,-3.49926 1.53038,0.36067 2.54073,1.6959 2.37769,3.14227 -0.22175,1.96745 -2.25581,3.13036 -4.08375,2.3348 z"
       id="path102-8" />
    <path
       style="fill:#000000;stroke-width:0.262842"
       d="m 15.259588,208.6428 c -2.84608,-1.54614 -0.35685,-6.81664 7.26598,-15.38441 1.44564,-1.62484 5.75271,-6.00166 9.57129,-9.72629 l 6.94287,-6.77204 0.73248,0.54154 c 0.40287,0.29786 0.788,0.68623 0.85586,0.86307 0.0679,0.17684 -2.42865,2.96797 -5.5478,6.20251 -6.63534,6.88084 -9.50451,10.24465 -10.58855,12.414 -0.95109,1.90331 -0.97127,2.37103 -0.1382,3.2041 1.13191,1.1319 3.84804,0.83083 8.81715,-0.97734 6.47111,-2.35473 21.1613,-9.34248 31.23244,-14.85649 2.5047,-1.37133 4.60704,-2.44027 4.67189,-2.37543 0.14685,0.14685 -8.53241,5.64753 -15.53408,9.84509 -15.54808,9.32119 -27.89605,15.52776 -33.64376,16.91067 -2.48294,0.59739 -3.68913,0.62627 -4.63757,0.11102 z"
       id="path103-0" />
    <path
       style="fill:#000000;stroke-width:0.262842"
       d="m 103.62511,187.44921 c -1.79999,-16.09726 -3.264,-29.71385 -3.25335,-30.25908 0.0463,-2.36933 1.63941,-4.59927 3.69334,-5.16965 0.54606,-0.15164 1.87993,-0.27378 2.96415,-0.27141 3.28211,0.007 4.84642,1.05059 5.65866,3.77441 0.38562,1.29316 0.29117,2.44272 -2.50749,30.51923 -1.59951,16.0465 -2.99244,29.51268 -3.09539,29.92485 -0.11734,0.46973 -1.4085,-10.17267 -3.45992,-28.51835 z"
       id="path104-9" />
    <path
       style="fill:#000000;stroke-width:0.262842"
       d="m 100.26001,195.16676 c -3.831392,-12.15188 -6.661662,-22.6238 -7.576442,-28.03263 -0.76873,-4.54524 -0.18989,-7.76137 1.80471,-10.02735 0.93252,-1.05941 3.51158,-2.65407 3.80992,-2.35572 0.11681,0.1168 0.38169,3.0915 2.431962,27.31166 0.87937,10.388 1.55683,18.92928 1.50548,18.98063 -0.0513,0.0513 -0.94038,-2.59312 -1.97563,-5.87659 z"
       id="path105-2" />
    <path
       style="fill:#000000;stroke-width:0.262842"
       d="m 111.10107,199.97333 c 0.0721,-0.72281 0.90186,-10.77652 1.84393,-22.34157 0.94207,-11.56504 1.80017,-21.47526 1.90689,-22.02272 l 0.19404,-0.99536 1.36822,0.68449 c 2.43222,1.21679 3.82929,3.31989 4.32547,6.51138 0.26172,1.6835 0.22615,2.37296 -0.27854,5.39742 -0.94603,5.66934 -3.39432,14.90811 -7.22066,27.24763 -2.08562,6.7259 -2.32008,7.33071 -2.13935,5.51873 z"
       id="path106-2" />
    <path
       style="fill:#000000;stroke-width:0.262842"
       d="m 89.287418,128.57719 c -1.59019,-0.71985 -2.98216,-1.39907 -3.09326,-1.50938 -0.1111,-0.11031 -0.17024,-3.01535 -0.13142,-6.45565 l 0.0706,-6.25508 1.90561,1.49124 c 1.04808,0.82019 1.9056,1.5475 1.9056,1.61624 0,0.0687 0.59139,2.84932 1.31421,6.17904 0.72281,3.32972 1.31421,6.10541 1.31421,6.16819 0,0.22048 -0.41888,0.0631 -3.28553,-1.2346 z"
       id="path107-9" />
    <path
       style="fill:#000000;stroke-width:0.262842"
       d="m 77.919508,109.14397 c -0.46983,-0.14322 -0.85424,-0.34943 -0.85424,-0.45825 0,-0.10881 0.68367,-0.87438 1.51927,-1.70126 l 1.51927,-1.50341 1.54986,1.5662 1.54986,1.5662 -0.76926,0.31122 c -1.04015,0.42081 -3.46702,0.5387 -4.51476,0.2193 z"
       id="path108-6" />
    <path
       style="fill:#000000;stroke-width:0.262842"
       d="m 121.5379,123.68346 1.25451,-6.2425 1.12076,-1.01428 c 0.61642,-0.55786 1.44603,-1.24602 1.84357,-1.52924 l 0.72282,-0.51496 v 6.34027 6.34027 l -2.95697,1.42905 c -1.62634,0.78598 -3.02048,1.43014 -3.09809,1.43147 -0.0776,0.001 0.42342,-2.80671 1.1134,-6.24008 z"
       id="path109-8" />
    <path
       style="fill:#000000;stroke-width:0.262842"
       d="m 128.58229,122.4328 v -11.49278 l 0.5914,0.17898 c 1.26519,0.38291 4.08253,0.46767 5.04013,0.15163 0.53611,-0.17693 1.01258,-0.28033 1.05883,-0.22978 0.0462,0.0506 -0.0547,4.31548 -0.22443,9.47763 -0.30809,9.37302 -0.30936,9.38665 -0.94481,10.06305 -0.90184,0.95996 -3.93945,2.96821 -4.7983,3.17229 l -0.72282,0.17175 z"
       id="path110-7" />
    <path
       style="fill:#000000;stroke-width:0.262842"
       d="m 130.19339,109.0191 c -1.006,-0.43674 -1.0022,-0.44759 0.84203,-2.40171 l 1.03664,-1.09842 1.34351,1.46226 c 0.73893,0.80424 1.38041,1.55707 1.42551,1.67296 0.11089,0.28495 -1.70402,0.76925 -2.84184,0.75834 -0.50597,-0.005 -1.3186,-0.1819 -1.80585,-0.39343 z"
       id="path111-2" />
    <path
       style="fill:#000000;stroke-width:0.262842"
       d="m 104.97505,114.89896 c -3.03029,-0.47384 -5.747112,-2.51719 -7.320082,-5.50549 -0.67371,-1.2799 -0.74475,-1.66546 -0.74493,-4.04324 -1.8e-4,-2.30384 0.0871,-2.81459 0.70636,-4.13602 0.38861,-0.82919 1.27828,-2.079332 1.97705,-2.778092 1.298762,-1.29877 3.788032,-2.67962 4.830542,-2.67962 0.49029,0 0.4147,0.12076 -0.48232,0.77056 -2.22996,1.61537 -3.29405,3.696852 -3.30123,6.457592 -0.0114,4.39754 3.20979,7.74496 7.45907,7.75127 4.00294,0.006 6.80406,-2.21223 7.75814,-6.1436 l 0.32637,-1.34483 0.0224,1.89575 c 0.0709,6.01614 -5.30173,10.68293 -11.23131,9.75572 z"
       id="path112-0" />
    <path
       style="fill:#000000;stroke-width:0.262842"
       d="m 102.49523,70.11928 c -0.68667,-0.22002 -1.2485,-0.43531 -1.2485,-0.47841 0,-0.0431 0.63316,-1.48844 1.40701,-3.21186 1.60355,-3.5712 2.95597,-5.89333 3.4323,-5.89333 0.40676,0 1.21772,0.89676 1.9045,2.10597 0.76589,1.34853 2.98134,6.34143 2.98134,6.71898 0,0.95331 -6.15101,1.50383 -8.47665,0.75865 z"
       id="path113-4" />
    <path
       style="fill:#000000;stroke-width:0.262842"
       d="m 151.85695,126.53581 c 0.13733,-0.12982 2.97011,-2.3977 6.29506,-5.03972 12.13996,-9.64648 20.28073,-16.67216 26.29962,-22.697182 6.9432,-6.95027 8.71812,-10.09824 6.66688,-11.824248 -0.69556,-0.58528 -1.05738,-0.68047 -2.58637,-0.68047 -3.34905,0 -8.01209,1.581838 -15.50078,5.258318 -2.36946,1.16325 -4.36019,2.06293 -4.42384,1.99928 -0.14509,-0.14509 7.057,-4.43718 11.69139,-6.967488 7.02689,-3.83659 13.67619,-6.48142 16.99885,-6.76148 3.58715,-0.30235 4.40587,1.94145 2.25971,6.19297 -3.24288,6.424108 -15.27163,17.59265 -32.46883,30.14689 -6.88908,5.02914 -14.92736,10.60917 -15.28298,10.60917 -0.10913,0 -0.0861,-0.10622 0.0513,-0.23604 z"
       id="path114-9" />
    <path
       style="fill:#000000;stroke-width:0.262842"
       d="m 101.16297,147.47882 c -1.04778,-0.27774 -1.493292,-0.93222 -1.493292,-2.19373 0,-0.74135 -0.0565,-0.72797 1.460662,-0.34594 l 1.16776,0.29404 v 1.28301 c 0,0.70565 -0.0296,1.27078 -0.0657,1.25584 -0.0361,-0.0149 -0.51738,-0.14689 -1.06942,-0.29322 z"
       id="path115-1" />
    <path
       style="fill:#000000;stroke-width:0.262842"
       d="m 104.40084,146.76423 v -1.29781 l 2.87489,-0.0821 2.8749,-0.0821 0.16185,0.86572 c 0.33475,1.79055 0.16863,1.89412 -3.0381,1.89412 h -2.87354 z"
       id="path116-6" />
    <path
       style="fill:#000000;stroke-width:0.262842"
       d="m 111.764,147.0552 c 0.006,-1.12287 0.28299,-1.85815 0.7476,-1.9827 1.85378,-0.49694 1.87723,-0.49147 1.87723,0.4373 0,1.13983 -0.43236,1.66213 -1.64276,1.98451 -0.9588,0.25537 -0.98556,0.2434 -0.98207,-0.43911 z"
       id="path117-9" />
    <path
       style="fill:#000000;stroke-width:0.262842"
       d="m 62.083288,58.43294 c -0.15571,-0.57825 -0.43384,-1.05136 -0.61806,-1.05136 -0.39442,0 -1.6021,-1.25062 -1.82688,-1.89183 -0.086,-0.24541 -0.63562,-0.57523 -1.22132,-0.73295 -1.23523,-0.33261 -1.3741,-0.7144 -0.34208,-0.94054 1.2439,-0.27256 1.32636,-0.32542 1.68951,-1.0831 0.19494,-0.40673 0.80437,-1.03067 1.35429,-1.38654 0.63942,-0.41378 1.05272,-0.91129 1.14648,-1.38009 0.1951,-0.97551 0.78357,-0.93378 1.00431,0.0712 0.10446,0.47562 0.40836,0.89385 0.7437,1.02348 0.63321,0.24476 1.53458,1.16708 1.97271,2.01856 0.1748,0.33971 0.65405,0.62937 1.21563,0.73472 1.26082,0.23653 1.19605,0.84698 -0.11333,1.0682 -0.69031,0.11662 -1.09349,0.34305 -1.19818,0.6729 -0.0868,0.27342 -0.62397,0.89617 -1.19376,1.38388 -0.56978,0.48772 -1.03597,1.02326 -1.03597,1.19009 0,0.16684 -0.24453,0.30334 -0.5434,0.30334 -0.42378,0 -0.50667,0.11572 -0.37655,0.52569 0.0931,0.29316 0.0472,0.52568 -0.10358,0.52568 -0.14873,0 -0.39782,-0.47311 -0.55352,-1.05137 z m 0.78852,-0.52568 c 0,-0.14456 -0.12526,-0.26284 -0.27835,-0.26284 -0.1531,0 -0.20525,0.11828 -0.11591,0.26284 0.0893,0.14456 0.2146,0.26284 0.27836,0.26284 0.0637,0 0.1159,-0.11828 0.1159,-0.26284 z m 1.37992,-2.29537 c 0.73767,-0.66478 0.61003,-2.27959 -0.23257,-2.94239 -1.41563,-1.11353 -3.25008,-0.24638 -3.25008,1.53631 0,1.86518 2.05332,2.69418 3.48265,1.40608 z"
       id="path118-8" />
    <path
       style="fill:#000000;stroke-width:0.262842"
       d="m 104.92913,22.43328 c -0.20324,-0.75477 -0.51059,-1.17431 -1.07355,-1.46544 -0.43384,-0.22434 -0.97891,-0.80658 -1.21128,-1.29386 -0.31396,-0.65838 -0.64223,-0.9272 -1.27788,-1.04645 -0.47047,-0.0883 -0.98852,-0.32089 -1.15124,-0.51695 -0.238892,-0.28784 -0.0754,-0.38953 0.84938,-0.52821 0.97789,-0.14664 1.20928,-0.30606 1.58361,-1.09104 0.24111,-0.50562 0.85838,-1.16711 1.3717,-1.46998 0.61536,-0.36307 0.98474,-0.80778 1.08426,-1.30537 0.083,-0.41508 0.29879,-0.75469 0.47949,-0.75469 0.18071,0 0.39648,0.33961 0.47949,0.75469 0.0995,0.49759 0.4689,0.9423 1.08426,1.30537 0.51333,0.30287 1.12916,0.96134 1.36851,1.46328 0.35279,0.73981 0.62652,0.94493 1.4456,1.08331 1.48579,0.25103 1.23183,1.17587 -0.32289,1.17587 -0.28268,0 -0.76104,0.39705 -1.09558,0.90935 -0.32659,0.50015 -0.87315,1.05946 -1.21457,1.24292 -0.34142,0.18347 -0.7229,0.60221 -0.84773,0.93055 -0.12483,0.32833 -0.41997,0.59697 -0.65586,0.59697 -0.26909,0 -0.37372,0.14376 -0.28083,0.38584 0.0814,0.21222 0.0405,0.45234 -0.091,0.53362 -0.1315,0.0813 -0.36724,-0.32813 -0.52386,-0.90978 z m 1.93326,-2.92002 c 0.52951,-0.41652 0.69255,-0.77819 0.69255,-1.53631 0,-1.26592 -0.68085,-1.91413 -2.01049,-1.91413 -1.20823,0 -1.93214,0.76205 -1.93214,2.03393 0,0.98875 0.9775,1.96127 1.97131,1.96127 0.32242,0 0.89786,-0.24514 1.27877,-0.54476 z"
       id="path119-1" />
    <path
       style="fill:#000000;stroke-width:0.262842"
       d="m 148.73612,58.49866 c -0.0638,-0.10843 -0.19215,-0.55197 -0.2852,-0.98566 -0.10615,-0.49479 -0.46325,-0.95698 -0.95862,-1.24073 -0.4342,-0.24872 -0.99294,-0.81385 -1.24165,-1.25585 -0.24872,-0.442 -0.74791,-0.87046 -1.10931,-0.95214 -1.31879,-0.29805 -1.57705,-0.40254 -1.57705,-0.63804 0,-0.13206 0.32526,-0.31251 0.72281,-0.40098 1.36324,-0.30338 1.51243,-0.39364 2.04031,-1.23432 0.29093,-0.46334 0.91396,-1.08046 1.3845,-1.37139 0.5042,-0.31174 0.92113,-0.82581 1.01523,-1.25178 0.18201,-0.82385 0.88251,-0.98855 0.88251,-0.2075 0,0.28343 0.14785,0.63648 0.32855,0.78456 0.18071,0.14809 0.72314,0.58581 1.20542,0.97272 0.48227,0.38691 0.98318,0.98312 1.11313,1.32491 0.24135,0.6348 0.36392,0.70916 1.62408,0.98528 1.07202,0.2349 0.89462,0.84223 -0.30191,1.03357 -0.80958,0.12945 -1.13909,0.3577 -1.56947,1.08714 -0.29962,0.50781 -0.83384,1.055 -1.18716,1.21598 -0.35332,0.16099 -0.70049,0.51484 -0.77149,0.78634 -0.071,0.27151 -0.33138,0.49365 -0.57862,0.49365 -0.32012,0 -0.40995,0.15133 -0.31206,0.52568 0.13117,0.50157 -0.18018,0.74282 -0.424,0.32856 z m 0.47927,-1.37992 c 0.0893,-0.14457 0.0372,-0.26285 -0.11591,-0.26285 -0.1531,0 -0.27836,0.11828 -0.27836,0.26285 0,0.14456 0.0522,0.26284 0.11591,0.26284 0.0637,0 0.18901,-0.11828 0.27836,-0.26284 z m 1.51134,-2.29538 c 0.73767,-0.66478 0.61003,-2.27959 -0.23258,-2.94239 -1.41563,-1.11353 -3.25008,-0.24638 -3.25008,1.53632 0,1.86517 2.05332,2.69417 3.48266,1.40607 z"
       id="path120-5" />
  </g>
</svg>
